<svg width="719" height="211" viewBox="0 0 719 211" fill="none" xmlns="http://www.w3.org/2000/svg">
<path d="M229.9 92.68L218.33 175.04C218.13 176.43 216.94 177.47 215.53 177.47H196.52C195.01 177.47 193.76 176.28 193.7 174.77C193.6 172.48 191.01 171.31 189.16 172.66C183.23 176.95 175.38 179.14 167.07 179.14C147.33 179.14 135.89 166.04 139.03 143.53L146.25 91.9C146.45 90.5 147.64 89.47 149.05 89.47H169.17C170.89 89.47 172.21 90.99 171.97 92.69L165.05 141.5C163.76 151.46 168.92 156.81 177.97 156.81C188.49 156.81 196.05 149.43 197.34 139.65L204.19 91.89C204.39 90.5 205.58 89.47 206.99 89.47H227.12C228.81 89.47 230.13 90.98 229.9 92.68Z" fill="#E8F1DF"/>
<path d="M331.15 125.04C333.26 154.66 308.67 180.06 278.99 179.1C270.62 178.83 263.32 176.79 257.69 173.39C254.43 171.43 250.23 173.55 249.69 177.31L245.57 206.28C245.21 208.8 243.05 210.68 240.5 210.68H225.02C221.9 210.68 219.5 207.92 219.94 204.83L235.57 94.44C235.97 91.59 238.42 89.47 241.3 89.47H258.29C260.22 89.47 261.72 91.16 261.49 93.07C261.28 94.85 263.31 96.07 264.73 94.99C270.85 90.33 279.65 87.81 289.78 87.81C313.7 87.81 329.53 102.36 331.15 125.04ZM304.53 131.72C304.53 118.62 295.67 109.95 282.21 109.95C267.27 109.95 256.93 119.73 256.38 133.38V134.86C255.64 148.33 265.42 157 278.89 157C294.39 156.99 304.53 146.85 304.53 131.72Z" fill="#E8F1DF"/>
<path d="M421.87 139.83H367.1C364.45 139.83 362.7 142.56 363.76 144.99C366.9 152.17 376.18 156.62 389.17 156.62C398.06 156.62 407.3 154.78 414.97 152C417.57 151.06 420.24 153.16 419.87 155.9L417.86 170.81C417.69 172.08 416.88 173.19 415.69 173.67C406.69 177.35 395.09 179.12 385.11 179.12C355.22 179.12 336.4 163.25 336.4 136.32C336.4 108.46 356.51 87.8 385.48 87.8C409.65 87.8 426.62 102.56 426.81 124.15C426.96 127.7 426.47 132.03 425.44 136.91C425.09 138.61 423.6 139.83 421.87 139.83ZM396.8 122.49C399.57 122.49 401.42 119.47 400.01 117.09C397.45 112.78 391.89 110.12 384.75 110.12C377.67 110.12 372.02 112.46 368.38 116.44C366.27 118.75 368.03 122.48 371.15 122.48H396.8V122.49Z" fill="#E8F1DF"/>
<path d="M493.29 91.44L490.66 109.6C490.42 111.28 488.88 112.44 487.19 112.25C485.54 112.06 484.06 111.98 483.01 111.98C465.85 111.98 458.84 125.08 456.26 142.05L451.66 174.79C451.44 176.33 450.12 177.48 448.57 177.48H429.04C427.14 177.48 425.68 175.8 425.95 173.92L437.43 92.16C437.65 90.62 438.97 89.47 440.52 89.47H457.79C459.5 89.47 460.89 90.84 460.91 92.54C460.95 95.22 464.14 96.62 466.11 94.81C471.11 90.19 478.26 87.62 486.32 87.62C487.83 87.62 489.3 87.72 490.59 87.89C492.34 88.12 493.54 89.71 493.29 91.44Z" fill="#E8F1DF"/>
<path d="M594.5 125.05C596.61 154.67 572.01 180.07 542.33 179.1C533.97 178.83 526.67 176.79 521.04 173.39C517.78 171.43 513.58 173.55 513.04 177.31L508.92 206.29C508.56 208.81 506.41 210.67 503.87 210.67H488.37C485.25 210.67 482.86 207.91 483.29 204.83L498.91 94.43C499.31 91.58 501.76 89.46 504.64 89.46H521.49C523.5 89.46 525.05 91.21 524.81 93.21C524.6 94.94 526.58 96.13 527.96 95.07C534.09 90.36 542.94 87.8 553.12 87.8C577.06 87.81 592.89 102.36 594.5 125.05ZM567.89 131.72C567.89 118.62 559.03 109.95 545.57 109.95C530.63 109.95 520.29 119.73 519.74 133.38V134.86C519 148.33 528.78 157 542.25 157C557.74 156.99 567.89 146.85 567.89 131.72Z" fill="#36B1BF"/>
<path d="M718.14 122.86L710.76 174.92C710.55 176.39 709.3 177.48 707.81 177.48H688C686.19 177.48 684.8 175.88 685.05 174.08L691.76 127.11C693.61 114.75 688.81 110.13 680.51 110.13C668.33 110.13 661.32 118.43 659.66 129.5L653.2 174.91C652.99 176.38 651.74 177.47 650.25 177.47H630.42C628.61 177.47 627.22 175.87 627.47 174.08L639 92.03C639.21 90.56 640.46 89.47 641.95 89.47H660.56C662.13 89.47 663.43 90.69 663.53 92.25C663.68 94.57 666.29 95.79 668.21 94.48C674.45 90.19 682.13 87.81 690.28 87.81C709.84 87.81 721.1 101.09 718.14 122.86Z" fill="#36B1BF"/>
<path d="M610.63 89.47H629.03C631.27 89.47 632.99 91.45 632.67 93.66L621.34 174.31C621.08 176.13 619.53 177.48 617.7 177.48H599.3C597.06 177.48 595.34 175.5 595.66 173.29L606.99 92.64C607.24 90.82 608.79 89.47 610.63 89.47ZM606.32 68.99C606.32 59.95 613.88 53.12 625.14 53.12C634.36 53.12 640.64 58.29 640.64 65.85C640.64 74.7 632.89 81.53 621.82 81.53C612.59 81.53 606.32 76.37 606.32 68.99Z" fill="#36B1BF"/>
<path d="M129.87 9.53C129.55 8.64 128.74 7.97001 127.89 7.51001C123.91 5.37001 119.49 4.12001 115.06 3.29001C110.34 3.29001 106.25 6.24 103.73 6.12C104.37 6.84 106.11 4.00001 106.13 5.35001C106.16 7.76001 103.91 9.53 102.48 10.63C96.6 15.16 95.88 22.99 96.28 28.82C96.44 31.14 97.04 33.67 97.99 36.11C98.28 36.21 98.57 36.31 98.85 36.41C99.32 36.54 99.76 36.7 100.18 36.89C100.6 36.92 101 36.98 101.39 37.04C101.78 37.06 102.16 37.1 102.53 37.15C103.09 37.09 103.67 37.05 104.28 37.05C104.4 37.05 104.52 37.06 104.64 37.06C105.23 36.98 105.85 36.93 106.52 36.92C108.03 36.78 110.12 38.66 111.53 39.08C114.47 39.96 114.86 40.74 117.88 41.49C121.03 42.28 127.58 42.47 130.13 40.77C133.05 38.82 133.3 35.17 132.25 32.21C131.19 29.25 129.11 26.58 128.12 23.6C127.43 21.54 127.33 19.39 127.67 17.25C128 15.19 129.24 13.55 129.82 11.57C129.99 11 130.08 10.39 129.95 9.81C129.94 9.74 129.91 9.63 129.87 9.53Z" fill="#FCB700"/>
<path d="M123.99 33.74C123.81 31.97 123.36 30.17 122.89 28.46C122.25 26.11 121.59 23.7 121.64 21.24C121.68 18.89 122.77 16.75 122.62 14.38C122.25 8.63 117.01 5.23001 110.18 3.23001C111.12 6.25001 110.54 9.67999 107.46 12.55C107.27 12.72 107.13 12.86 107.01 12.98C106.87 14.14 107.05 14.7 107.22 15.69C107.71 18.59 108.62 21.75 109.75 24.45C110.72 26.75 112.17 28.75 113.01 31.13C113.69 33.06 113.54 35.08 114.15 36.99C114.39 37.74 114.77 38.87 115.54 40.24C115.86 40.8 117.61 41.44 118.21 41.58C119.35 41.84 120.89 41.71 121.89 41.01C122.53 40.57 122.96 39.89 123.28 39.18C124.05 37.46 124.18 35.61 123.99 33.74Z" fill="#33B1BF"/>
<path d="M118.28 19.44C119.3 16.22 125.54 8.86 122.34 5.69C121.32 4.68 119.85 4.29001 118.46 3.95001C110.58 2.04001 102.73 0.960001 94.77 0.470001C94.1 1.71 93.17 2.79 91.98 3.62C91.65 7.23 89.63 10.65 85.94 12.02C86.12 14 85.8 16.04 84.97 17.83C86.91 24.04 90.63 30.21 94.02 36.71C100.24 37.27 106.5 38.28 112.48 39.67C114.55 40.15 119.6 42.07 119.54 38.41C119.52 37.4 119.09 36.45 118.72 35.51C116.72 30.41 116.63 24.64 118.28 19.44Z" fill="#FB8802"/>
<path d="M62.39 142.31C85.99 142.31 95.27 134.89 95.27 123.75C95.27 111.55 84.4 109.43 76.18 108.1L55.76 105.18C20.76 100.41 7.50001 82.38 7.50001 57.98C7.50001 20.85 38.53 0.169999 83.87 0.169999C91.69 0.169999 101.88 -0.650016 108.73 3.77998C109.4 4.20998 110.05 4.71998 110.46 5.39998C111.23 6.67998 111.04 8.33998 110.43 9.70998C109.82 11.08 108.87 12.25 108.1 13.53C105.65 17.61 105.55 22.4 107.28 26.77C109.15 31.5 112.82 34.97 116.14 38.71C116.27 38.86 116.75 39.26 117.25 39.72C117.83 40.24 117.35 41.2 116.58 41.05C105.39 38.79 94.27 36.24 82.8 36.24C61.05 36.24 49.92 42.61 49.92 53.74C49.92 65.14 61.32 66.74 67.95 67.53L90.49 70.98C124.43 76.02 137.69 94.58 137.69 119.78C137.69 158.76 106.66 178.12 60.52 178.12C41.69 178.12 21.76 174.79 7.51001 169.68C2.97001 168.05 0.220006 163.41 0.900006 158.63L3.19001 142.49C4.11001 136.03 10.75 132.08 16.87 134.34C30.55 139.37 47.01 142.31 62.39 142.31Z" fill="#E8F1DF"/>
</svg>
